<?xml version="1.0" encoding="utf-8"?>
<!-- Generator: Adobe Illustrator 19.2.0, SVG Export Plug-In . SVG Version: 6.00 Build 0)  -->
<svg version="1.1" id="Layer_1" xmlns="http://www.w3.org/2000/svg" xmlns:xlink="http://www.w3.org/1999/xlink" x="0px" y="0px"
	 viewBox="0 0 185.7 200" style="enable-background:new 0 0 185.7 200;" xml:space="preserve">
<style type="text/css">
	.st0{fill-rule:evenodd;clip-rule:evenodd;}
</style>
<g>
	<defs>
		<path id="SVGID_1_" d="M37.1,113.5h12.4V101H37.1V113.5z M24.8,88.5h37.1V126H24.8V88.5z M37.1,163.5h12.4V151H37.1V163.5z
			 M24.8,138.5h37.1V176H24.8V138.5z M86.7,113.5H99V101H86.7V113.5z M74.3,88.5h37.1V126H74.3V88.5z M86.7,163.5H99V151H86.7V163.5
			z M74.3,138.5h37.1V176H74.3V138.5z M136.2,113.5h12.4V101h-12.4V113.5z M123.8,88.5h37.1V126h-37.1V88.5z M136.2,163.5h12.4V151
			h-12.4V163.5z M123.8,138.5h37.1V176h-37.1V138.5z M173.3,63.5H12.4v118.7c0,3.5,2.8,6.2,6.2,6.2h148.6c3.4,0,6.2-2.8,6.2-6.2
			V63.5z M173.3,32.3c0-3.5-2.8-6.3-6.2-6.3h-30.9v12.5h-12.4V26H61.9v12.5H49.5V26H18.6c-3.4,0-6.2,2.8-6.2,6.3V51h160.9
			L173.3,32.3L173.3,32.3z M173.3,201H12.4C5.5,201,0,195.4,0,188.5v-125V51V26c0-6.9,5.5-12.5,12.4-12.5h37.1V1h12.4v12.5h61.9V1
			h12.4v12.5h43.3c6.8,0,6.2,5.6,6.2,12.5v25v12.5v125C185.7,195.4,180.2,201,173.3,201z"/>
	</defs>
	<use xlink:href="#SVGID_1_"  style="overflow:visible;fill-rule:evenodd;clip-rule:evenodd;"/>
	<clipPath id="SVGID_2_">
		<use xlink:href="#SVGID_1_"  style="overflow:visible;"/>
	</clipPath>
</g>
</svg>
