<?xml version="1.0" encoding="utf-8"?>
<!-- Generator: Adobe Illustrator 19.2.0, SVG Export Plug-In . SVG Version: 6.00 Build 0)  -->
<svg version="1.1" id="Layer_1" xmlns="http://www.w3.org/2000/svg" xmlns:xlink="http://www.w3.org/1999/xlink" x="0px" y="0px"
	 viewBox="0 0 333.3 200" style="enable-background:new 0 0 333.3 200;" xml:space="preserve">
<style type="text/css">
	.st0{fill-rule:evenodd;clip-rule:evenodd;}
</style>
<path class="st0" d="M152.7,93.2c-0.3-0.3-0.7-0.6-1-0.9c-0.3-0.3-0.6-0.6-0.9-0.9l0,0L80.6,25L65.4,10.6c-15-14.2-39.2-14.2-54.2,0
	c-14.8,14-15,36.5-0.5,50.7l1.1,1.1l138.6,131c0.2,0.2,0.5,0.5,0.8,0.7l0,0c4.2,4,9.9,6,15.5,5.8c5.6,0.1,11.2-1.8,15.5-5.8l0,0
	c0.2-0.3,0.5-0.5,0.8-0.7l138.6-131l1.1-1.1c14.4-14.2,14.3-36.7-0.5-50.7c-15-14.2-39.2-14.2-54.2,0L252.7,25l-70.2,66.4l0,0
	c-0.3,0.3-0.6,0.6-0.9,0.9c-0.3,0.3-0.7,0.6-1,0.9l0,0c-4,3.3-9,5-13.9,5C161.7,98.2,156.7,96.5,152.7,93.2L152.7,93.2z"/>
</svg>
