<svg id="Layer_1" xmlns="http://www.w3.org/2000/svg" viewBox="0 0 333.3 200"><style>.st0{fill-rule:evenodd;clip-rule:evenodd}</style><path class="st0" d="M152.7 93.2c-.3-.3-.7-.6-1-.9l-.9-.9L80.6 25 65.4 10.6c-15-14.2-39.2-14.2-54.2 0-14.8 14-15 36.5-.5 50.7l1.1 1.1 138.6 131c.2.2.5.5.8.7 4.2 4 9.9 6 15.5 5.8 5.6.1 11.2-1.8 15.5-5.8.2-.3.5-.5.8-.7l138.6-131 1.1-1.1c14.4-14.2 14.3-36.7-.5-50.7-15-14.2-39.2-14.2-54.2 0L252.7 25l-70.2 66.4-.9.9c-.3.3-.7.6-1 .9-4 3.3-9 5-13.9 5-5 0-10-1.7-14-5z"/></svg>