<?xml version="1.0" encoding="utf-8"?>
<!-- Generator: Adobe Illustrator 19.2.0, SVG Export Plug-In . SVG Version: 6.00 Build 0)  -->
<svg version="1.1" id="Layer_1" xmlns="http://www.w3.org/2000/svg" xmlns:xlink="http://www.w3.org/1999/xlink" x="0px" y="0px"
	 viewBox="0 0 200 200" style="enable-background:new 0 0 200 200;" xml:space="preserve">
<style type="text/css">
	.st0{fill-rule:evenodd;clip-rule:evenodd;}
</style>
<g>
	<defs>
		<path id="SVGID_3_" d="M146.7,146.7h-13.3v-13.3h13.3V146.7z M106.7,173.3H93.3V160h13.3V173.3z M26.7,93.3H40v13.3H26.7V93.3z
			 M53.3,40h13.3v13.3H53.3V40z M53.3,133.3h13.3v13.3H53.3V133.3z M133.3,40h13.3v13.3h-13.3V40z M93.3,106.7L93.3,106.7V93.3V26.7
			h13.3v66.7H160v13.3h-53.3H93.3z M100,13.3c-47.9,0-86.7,38.8-86.7,86.7c0,47.9,38.8,86.7,86.7,86.7c47.9,0,86.7-38.8,86.7-86.7
			C186.7,52.1,147.9,13.3,100,13.3z M100,200C44.8,200,0,155.2,0,100C0,44.8,44.8,0,100,0s100,44.8,100,100
			C200,155.2,155.2,200,100,200z"/>
	</defs>
	<use xlink:href="#SVGID_3_"  style="overflow:visible;fill-rule:evenodd;clip-rule:evenodd;"/>
	<clipPath id="SVGID_2_">
		<use xlink:href="#SVGID_3_"  style="overflow:visible;"/>
	</clipPath>
</g>
</svg>
