<svg id="Layer_1" xmlns="http://www.w3.org/2000/svg" xmlns:xlink="http://www.w3.org/1999/xlink" viewBox="0 0 185.7 200"><style>.st0{fill-rule:evenodd;clip-rule:evenodd}</style><defs><path id="SVGID_1_" d="M37.1 113.5h12.4V101H37.1v12.5zm-12.3-25h37.1V126H24.8V88.5zm12.3 75h12.4V151H37.1v12.5zm-12.3-25h37.1V176H24.8v-37.5zm61.9-25H99V101H86.7v12.5zm-12.4-25h37.1V126H74.3V88.5zm12.4 75H99V151H86.7v12.5zm-12.4-25h37.1V176H74.3v-37.5zm61.9-25h12.4V101h-12.4v12.5zm-12.4-25h37.1V126h-37.1V88.5zm12.4 75h12.4V151h-12.4v12.5zm-12.4-25h37.1V176h-37.1v-37.5zm49.5-75H12.4v118.7c0 3.5 2.8 6.2 6.2 6.2h148.6c3.4 0 6.2-2.8 6.2-6.2V63.5zm0-31.2c0-3.5-2.8-6.3-6.2-6.3h-30.9v12.5h-12.4V26H61.9v12.5H49.5V26H18.6c-3.4 0-6.2 2.8-6.2 6.3V51h160.9V32.3zm0 168.7H12.4C5.5 201 0 195.4 0 188.5V26c0-6.9 5.5-12.5 12.4-12.5h37.1V1h12.4v12.5h61.9V1h12.4v12.5h43.3c6.8 0 6.2 5.6 6.2 12.5v162.5c0 6.9-5.5 12.5-12.4 12.5z"/></defs><use xlink:href="#SVGID_1_" overflow="visible" fill-rule="evenodd" clip-rule="evenodd"/><clipPath id="SVGID_2_"><use xlink:href="#SVGID_1_" overflow="visible"/></clipPath></svg>