<?xml version="1.0" encoding="utf-8"?>
<!-- Generator: Adobe Illustrator 19.2.0, SVG Export Plug-In . SVG Version: 6.00 Build 0)  -->
<svg version="1.1" id="Layer_1" xmlns="http://www.w3.org/2000/svg" xmlns:xlink="http://www.w3.org/1999/xlink" x="0px" y="0px"
	 viewBox="0 0 150 200" style="enable-background:new 0 0 150 200;" xml:space="preserve">
<style type="text/css">
	.st0{fill-rule:evenodd;clip-rule:evenodd;}
</style>
<g>
	<defs>
		<path id="SVGID_7_" d="M95.5,73.3c0-11.1-9.2-20-20.5-20c-11.3,0-20.5,9-20.5,20c0,11,9.2,20,20.5,20
			C86.3,93.3,95.5,84.4,95.5,73.3z M40.9,73.3C40.9,54.9,56.2,40,75,40s34.1,14.9,34.1,33.3c0,18.4-15.3,33.3-34.1,33.3
			S40.9,91.7,40.9,73.3z M75,13.3c-33.9,0-61.4,28-61.4,62.5C13.6,110.3,75,180,75,180s61.4-69.6,61.4-104.2
			C136.4,41.3,108.9,13.3,75,13.3z M86.4,186.7h29.5c3.8,0,6.8,3,6.8,6.7c0,3.7-3.1,6.7-6.8,6.7H34.1c-3.8,0-6.8-3-6.8-6.7
			c0-3.7,3.1-6.7,6.8-6.7h29.5C42.6,161.4,0,106.2,0,75C0,33.6,33.6,0,75,0s75,33.6,75,75C150,106.2,107.4,161.4,86.4,186.7z"/>
	</defs>
	<use xlink:href="#SVGID_7_"  style="overflow:visible;fill-rule:evenodd;clip-rule:evenodd;"/>
	<clipPath id="SVGID_2_">
		<use xlink:href="#SVGID_7_"  style="overflow:visible;"/>
	</clipPath>
</g>
</svg>
