<svg id="Layer_1" xmlns="http://www.w3.org/2000/svg" xmlns:xlink="http://www.w3.org/1999/xlink" viewBox="0 0 153.8 200"><style>.st0{fill-rule:evenodd;clip-rule:evenodd}</style><defs><path id="SVGID_5_" d="M115.4 12.5H38.5v53.8l38.5 27 38.5-27V12.5zM38.5 133.7v53.8h76.9v-53.8l-38.5-27-38.4 27zM147.4 12.5h-19.2v56.3c0 .3-.1.6-.2.9-.5 2.8-2.7 4.9-5.7 5.2L86.6 100l35.8 25.1c2.9.3 5.2 2.4 5.7 5.2.1.3.2.6.2.9v56.3h19.2c3.5 0 6.4 2.8 6.4 6.2s-2.9 6.2-6.4 6.2H6.4c-3.5 0-6.4-2.8-6.4-6.2s2.9-6.2 6.4-6.2h19.2v-56.3c0-.3.1-.6.2-.9.5-2.8 2.7-4.9 5.7-5.2L67.3 100 31.5 74.9c-2.9-.3-5.2-2.4-5.7-5.2-.1-.3-.2-.6-.2-.9V12.5H6.4C2.9 12.5 0 9.7 0 6.2S2.9 0 6.4 0h141c3.5 0 6.4 2.8 6.4 6.2s-2.8 6.3-6.4 6.3z"/></defs><use xlink:href="#SVGID_5_" overflow="visible" fill-rule="evenodd" clip-rule="evenodd"/><clipPath id="SVGID_2_"><use xlink:href="#SVGID_5_" overflow="visible"/></clipPath></svg>