<svg id="Layer_1" xmlns="http://www.w3.org/2000/svg" xmlns:xlink="http://www.w3.org/1999/xlink" viewBox="0 0 200 58"><style>.st0{fill:#fff}</style><defs><path id="SVGID_1_" d="M170.1 20c-2.7-2.7-2.7-7 0-9.6 2.7-2.7 7-2.7 9.6 0l17.7 17.7c2.7 2.7 2.7 7 0 9.6-2.7 2.7-7 2.7-9.6 0L170.1 20z"/></defs><linearGradient id="SVGID_2_" gradientUnits="userSpaceOnUse" x1="598.321" y1="212.667" x2="615.514" y2="232.372" gradientTransform="rotate(180 394.451 122.284)"><stop offset="0" stop-color="#f16281"/><stop offset="1" stop-color="#f47e5c"/></linearGradient><use xlink:href="#SVGID_1_" overflow="visible" fill-rule="evenodd" clip-rule="evenodd" fill="url(#SVGID_2_)"/><clipPath id="SVGID_3_"><use xlink:href="#SVGID_1_" overflow="visible"/></clipPath><defs><path id="SVGID_4_" d="M29.9 38c2.7 2.7 2.7 7 0 9.6-2.7 2.7-7 2.7-9.6 0L2.6 29.9c-2.7-2.7-2.7-7 0-9.6 2.7-2.7 7-2.7 9.6 0L29.9 38z"/></defs><linearGradient id="SVGID_5_" gradientUnits="userSpaceOnUse" x1="7.889" y1="26.234" x2="34.742" y2="50.962"><stop offset="0" stop-color="#45bb8b"/><stop offset="1" stop-color="#26c4f4"/></linearGradient><use xlink:href="#SVGID_4_" overflow="visible" fill-rule="evenodd" clip-rule="evenodd" fill="url(#SVGID_5_)"/><clipPath id="SVGID_6_"><use xlink:href="#SVGID_4_" overflow="visible"/></clipPath><path class="st0" d="M48.3 20.2c-7.6 0-12.8 6.2-12.8 13.6v.1c0 8 5.8 13.5 13.6 13.5 3.8 0 6.7-1.2 9-3.2.5-.5 1-1.2 1-2.2 0-1.7-1.2-2.9-2.9-2.9-.8 0-1.3.2-1.8.6-1.5 1.1-3.2 1.8-5.2 1.8-3.3 0-5.6-1.8-6.3-5.1h14.6c1.9 0 3.4-1.4 3.4-3.6-.1-5.4-3.9-12.6-12.6-12.6zm-5.6 11.5c.6-3.4 2.6-5.6 5.6-5.6 3.1 0 5 2.2 5.5 5.6H42.7zM79 20.2c-3.7 0-5.9 2-7.6 4.2v-.3c0-2.1-1.6-3.7-3.7-3.7-2 0-3.7 1.7-3.7 3.7v19.4c0 2.1 1.6 3.7 3.7 3.7 2 0 3.7-1.7 3.7-3.7V32.3c0-3.5 1.8-5.3 4.6-5.3s4.5 1.8 4.5 5.3v11.2c0 2.1 1.6 3.7 3.7 3.7 2 0 3.7-1.7 3.7-3.7V29.9c-.1-6-3.4-9.7-8.9-9.7zm55.5 0c-7.6 0-12.8 6.2-12.8 13.6v.1c0 8 5.8 13.5 13.6 13.5 3.8 0 6.7-1.2 9-3.2.5-.5 1-1.2 1-2.2 0-1.7-1.2-2.9-2.9-2.9-.8 0-1.3.2-1.8.6-1.5 1.1-3.2 1.8-5.2 1.8-3.3 0-5.6-1.8-6.3-5.1h14.6c1.9 0 3.4-1.4 3.4-3.6-.1-5.4-3.9-12.6-12.6-12.6zm-5.6 11.5c.6-3.4 2.6-5.6 5.6-5.6 3.1 0 5 2.2 5.5 5.6h-11.1zM31.4 17.1h.6c1.6 0 3-1.4 3-3.1 0-1.7-1.3-2.8-2.5-3-.8-.1-1.8-.2-3-.2-2.6 0-4.6.7-6 2.1-1.4 1.4-2.1 3.5-2.1 6.4V21h-.3c-1.7 0-3.1 1.4-3.1 3.1s1.4 3 3.1 3h.3v16.4c0 2.1 1.6 3.7 3.7 3.7 2 0 3.7-1.7 3.7-3.7V27h3.1c1.7 0 3.1-1.3 3.1-3s-1.4-3-3.1-3h-3.2v-1c0-2 1-2.9 2.7-2.9zM179.2 31c-2.8-1-5.3-1.7-5.3-3.1v-.1c0-1 .9-1.8 2.7-1.8 1.5 0 3.5.6 5.6 1.7.5.2.8.3 1.4.3 1.6 0 3-1.3 3-2.9 0-1.3-.7-2.2-1.7-2.8-2.5-1.3-5.3-2-8-2-5.2 0-9.5 3-9.5 8.3v.1c0 5.1 4.1 6.8 7.7 7.9 2.9.9 5.4 1.4 5.4 3v.1c0 1.2-1 2-3.1 2s-4.6-.8-7-2.3c-.4-.2-.9-.4-1.5-.4-1.6 0-2.9 1.3-2.9 2.9 0 1.2.6 2.1 1.4 2.5 3.1 2.1 6.6 3 9.8 3 5.6 0 9.9-2.6 9.9-8.5v-.1c0-4.8-4.2-6.5-7.9-7.8zm-17.1-10.6c-2.2 0-3.9 2.3-5 4.9v-1.2c0-2.1-1.6-3.7-3.7-3.7-2 0-3.7 1.7-3.7 3.7v19.4c0 2.1 1.6 3.7 3.7 3.7 2 0 3.7-1.7 3.7-3.7v-6.9c0-5.3 2.1-8.2 5.8-9 1.5-.3 2.8-1.5 2.8-3.5 0-2.2-1.3-3.7-3.6-3.7zm-47.5-9.5c-2 0-3.7 1.7-3.7 3.7v9.5c-1.7-2.1-4.2-3.9-8.1-3.9C96.7 20.2 91 25 91 33.7v.1c0 8.7 5.8 13.5 11.8 13.5 3.8 0 6.3-1.8 8.1-4.3v.3c0 2.1 1.6 3.7 3.7 3.7 2 0 3.7-1.7 3.7-3.7V14.6c0-2-1.6-3.7-3.7-3.7zm-3.5 22.9c0 4.3-2.9 7.2-6.3 7.2s-6.3-2.9-6.3-7.2v-.1c0-4.4 2.9-7.2 6.3-7.2s6.3 2.9 6.3 7.3z"/><defs><path id="SVGID_7_" d="M29.5 2.4c2.6 2.7 2.6 7 0 9.7L12.1 29.7c-1.2 1.2-3.6 4.6-1.5 8.1 0 0-6.6-6.6-8-8.1C0 27 0 22.7 2.6 20L19.9 2.4c2.6-2.7 6.9-2.7 9.6 0z"/></defs><linearGradient id="SVGID_8_" gradientUnits="userSpaceOnUse" x1="22.861" y1="23.267" x2="10.69" y2="10.517"><stop offset="0" stop-color="#f47e5c"/><stop offset="1" stop-color="#f9bd27"/></linearGradient><use xlink:href="#SVGID_7_" overflow="visible" fill-rule="evenodd" clip-rule="evenodd" fill="url(#SVGID_8_)"/><clipPath id="SVGID_9_"><use xlink:href="#SVGID_7_" overflow="visible"/></clipPath><defs><path id="SVGID_10_" d="M170.5 55.6c-2.6-2.7-2.6-7 0-9.7l17.4-17.6c1.2-1.2 3.6-4.6 1.5-8.1 0 0 6.6 6.6 8 8.1 2.6 2.7 2.6 7 0 9.7L180 55.6c-2.5 2.7-6.8 2.7-9.5 0z"/></defs><linearGradient id="SVGID_11_" gradientUnits="userSpaceOnUse" x1="611.763" y1="209.835" x2="599.592" y2="197.085" gradientTransform="rotate(180 394.451 122.284)"><stop offset="0" stop-color="#7650a0"/><stop offset="1" stop-color="#6b3895"/></linearGradient><use xlink:href="#SVGID_10_" overflow="visible" fill-rule="evenodd" clip-rule="evenodd" fill="url(#SVGID_11_)"/><clipPath id="SVGID_12_"><use xlink:href="#SVGID_10_" overflow="visible"/></clipPath></svg>