<svg width="30" height="26" xmlns="http://www.w3.org/2000/svg"><g fill="#FFF"><path d="M12.975 11.97l3.145-1.054 1.017 3.038-3.144 1.053z"/><path d="M12.783 11.871l3.444-1.153 1.114 3.326-3.444 1.154z"/><path d="M26.886 9.389c-2.662-8.873-6.5-10.937-15.373-8.275C2.64 3.776.576 7.614 3.238 16.487c2.662 8.873 6.5 10.937 15.373 8.275 8.873-2.662 10.937-6.5 8.275-15.373zm-4.478 5.757l-1.671.557.577 1.734c.227.701-.144 1.465-.846 1.692-.144.04-.31.082-.454.061a1.377 1.377 0 0 1-1.238-.907l-.578-1.734-3.446 1.156.578 1.733c.227.702-.144 1.465-.846 1.692-.144.041-.31.083-.454.062a1.377 1.377 0 0 1-1.238-.908l-.578-1.733-1.671.557c-.145.041-.31.082-.454.062a1.377 1.377 0 0 1-1.238-.908c-.227-.702.144-1.465.846-1.692l1.671-.557-1.114-3.323-1.671.558c-.145.04-.31.082-.454.062a1.377 1.377 0 0 1-1.239-.908c-.227-.702.145-1.465.847-1.692l1.67-.558L8.83 8.42c-.227-.702.145-1.465.846-1.692.702-.227 1.465.144 1.692.846l.578 1.733 3.446-1.155-.578-1.734c-.227-.701.145-1.465.846-1.692.702-.227 1.465.145 1.692.846l.578 1.734 1.672-.557c.701-.227 1.465.144 1.692.846.227.701-.145 1.465-.846 1.692l-1.672.557 1.114 3.322 1.672-.557c.701-.227 1.465.144 1.692.846.227.702-.144 1.465-.846 1.692z"/></g></svg>