<svg id="Layer_1" xmlns="http://www.w3.org/2000/svg" viewBox="0 0 263.5 205"><style>.st0{fill-rule:evenodd;clip-rule:evenodd;fill:#4199d4;stroke:#fff;stroke-width:8;stroke-miterlimit:10}</style><path class="st0" d="M222.9 37.5c9.9-5.9 17.5-15.3 21.1-26.5-9.3 5.5-19.5 9.5-30.5 11.6-8.7-9.3-21.2-15.1-35-15.1-26.5 0-48 21.5-48 48 0 3.8.4 7.4 1.2 10.9-39.9-2-75.2-21.1-98.9-50.1-4.1 7.1-6.5 15.3-6.5 24.1 0 16.6 8.5 31.3 21.3 39.9-7.9-.3-15.3-2.4-21.7-6v.6c0 23.2 16.5 42.6 38.5 47-4 1.1-8.3 1.7-12.6 1.7-3.1 0-6.1-.3-9-.9 6.1 19.1 23.8 32.9 44.8 33.3-16.4 12.9-37.1 20.5-59.6 20.5-3.9 0-7.7-.2-11.4-.7 21.2 13.6 46.4 21.5 73.5 21.5 88.2 0 136.5-73.1 136.5-136.5 0-2.1 0-4.2-.1-6.2 9.4-6.8 17.5-15.2 23.9-24.8-8.5 4-17.8 6.6-27.5 7.7z"/></svg>