<svg id="Layer_1" xmlns="http://www.w3.org/2000/svg" xmlns:xlink="http://www.w3.org/1999/xlink" viewBox="0 0 150 200"><style>.st0{fill-rule:evenodd;clip-rule:evenodd}</style><defs><path id="SVGID_7_" d="M95.5 73.3c0-11.1-9.2-20-20.5-20s-20.5 9-20.5 20 9.2 20 20.5 20 20.5-8.9 20.5-20zm-54.6 0C40.9 54.9 56.2 40 75 40s34.1 14.9 34.1 33.3-15.3 33.3-34.1 33.3-34.1-14.9-34.1-33.3zm34.1-60c-33.9 0-61.4 28-61.4 62.5S75 180 75 180s61.4-69.6 61.4-104.2c0-34.5-27.5-62.5-61.4-62.5zm11.4 173.4h29.5c3.8 0 6.8 3 6.8 6.7s-3.1 6.7-6.8 6.7H34.1c-3.8 0-6.8-3-6.8-6.7s3.1-6.7 6.8-6.7h29.5C42.6 161.4 0 106.2 0 75 0 33.6 33.6 0 75 0s75 33.6 75 75c0 31.2-42.6 86.4-63.6 111.7z"/></defs><use xlink:href="#SVGID_7_" overflow="visible" fill-rule="evenodd" clip-rule="evenodd"/><clipPath id="SVGID_2_"><use xlink:href="#SVGID_7_" overflow="visible"/></clipPath></svg>