<?xml version="1.0" encoding="UTF-8"?>
<svg width="30px" height="26px" viewBox="0 0 30 26" version="1.1" xmlns="http://www.w3.org/2000/svg" xmlns:xlink="http://www.w3.org/1999/xlink">
    <!-- Generator: Sketch 48.2 (47327) - http://www.bohemiancoding.com/sketch -->
    <title>Artboard</title>
    <desc>Created with Sketch.</desc>
    <defs></defs>
    <g id="Page-1" stroke="none" stroke-width="1" fill="none" fill-rule="evenodd">
        <g id="Artboard" fill="#FFFFFF" fill-rule="nonzero">
            <g id="slack" transform="translate(2.000000, 0.000000)">
                <rect id="Rectangle-path" transform="translate(13.056190, 12.961505) rotate(-18.518296) translate(-13.056190, -12.961505) " x="11.3982581" y="11.3600933" width="3.3158641" height="3.20282328"></rect>
                <g id="Group">
                    <rect id="Rectangle-path" transform="translate(13.061542, 12.957839) rotate(-18.518296) translate(-13.061542, -12.957839) " x="11.2457112" y="11.2039117" width="3.63166068" height="3.50785407"></rect>
                    <path d="M24.8857143,9.38888889 C22.2238095,0.515873016 18.3857143,-1.54761905 9.51269841,1.11428571 C0.63968254,3.77619048 -1.42380952,7.61428571 1.23809524,16.4873016 C3.9,25.3603175 7.73809524,27.4238095 16.6111111,24.7619048 C25.484127,22.1 27.547619,18.2619048 24.8857143,9.38888889 Z M20.4079365,15.1460317 L18.7365079,15.7031746 L19.3142857,17.4365079 C19.5412698,18.1380952 19.1698413,18.9015873 18.468254,19.1285714 C18.3238095,19.1698413 18.1587302,19.2111111 18.0142857,19.1904762 C17.4777778,19.1698413 16.9619048,18.8190476 16.7761905,18.2825397 L16.1984127,16.5492063 L12.752381,17.7047619 L13.3301587,19.4380952 C13.5571429,20.1396825 13.1857143,20.9031746 12.484127,21.1301587 C12.3396825,21.1714286 12.1746032,21.2126984 12.0301587,21.1920635 C11.4936508,21.1714286 10.9777778,20.8206349 10.7920635,20.284127 L10.2142857,18.5507937 L8.54285714,19.1079365 C8.3984127,19.1492063 8.23333333,19.1904762 8.08888889,19.1698413 C7.55238095,19.1492063 7.03650794,18.7984127 6.85079365,18.2619048 C6.62380952,17.5603175 6.9952381,16.7968254 7.6968254,16.5698413 L9.36825397,16.0126984 L8.25396825,12.6904762 L6.58253968,13.247619 C6.43809524,13.2888889 6.27301587,13.3301587 6.12857143,13.3095238 C5.59206349,13.2888889 5.07619048,12.9380952 4.89047619,12.4015873 C4.66349206,11.7 5.03492063,10.9365079 5.73650794,10.7095238 L7.40793651,10.152381 L6.83015873,8.41904762 C6.6031746,7.71746032 6.97460317,6.95396825 7.67619048,6.72698413 C8.37777778,6.5 9.14126984,6.87142857 9.36825397,7.57301587 L9.94603175,9.30634921 L13.3920635,8.15079365 L12.8142857,6.41746032 C12.5873016,5.71587302 12.9587302,4.95238095 13.6603175,4.72539683 C14.3619048,4.4984127 15.1253968,4.86984127 15.352381,5.57142857 L15.9301587,7.3047619 L17.6015873,6.74761905 C18.3031746,6.52063492 19.0666667,6.89206349 19.2936508,7.59365079 C19.5206349,8.2952381 19.1492063,9.05873016 18.447619,9.28571429 L16.7761905,9.84285714 L17.8904762,13.1650794 L19.5619048,12.6079365 C20.2634921,12.3809524 21.0269841,12.752381 21.2539683,13.4539683 C21.4809524,14.1555556 21.1095238,14.9190476 20.4079365,15.1460317 Z" id="Shape"></path>
                </g>
            </g>
        </g>
    </g>
</svg>