<?xml version="1.0" encoding="utf-8"?>
<!-- Generator: Adobe Illustrator 19.2.0, SVG Export Plug-In . SVG Version: 6.00 Build 0)  -->
<svg version="1.1" id="Layer_1" xmlns="http://www.w3.org/2000/svg" xmlns:xlink="http://www.w3.org/1999/xlink" x="0px" y="0px"
	 viewBox="0 0 200 58" style="enable-background:new 0 0 200 58;" xml:space="preserve">
<style type="text/css">
	.st0{fill:#FFFFFF;}
</style>
<g>
	<g>
		<defs>
			<path id="SVGID_1_" d="M170.1,20c-2.7-2.7-2.7-7,0-9.6c2.7-2.7,7-2.7,9.6,0l17.7,17.7c2.7,2.7,2.7,7,0,9.6c-2.7,2.7-7,2.7-9.6,0
				L170.1,20z"/>
		</defs>
		
			<linearGradient id="SVGID_2_" gradientUnits="userSpaceOnUse" x1="598.3207" y1="212.6672" x2="615.514" y2="232.3719" gradientTransform="matrix(-1 0 0 -1 788.902 244.5683)">
			<stop  offset="0" style="stop-color:#F16281"/>
			<stop  offset="1" style="stop-color:#F47E5C"/>
		</linearGradient>
		<use xlink:href="#SVGID_1_"  style="overflow:visible;fill-rule:evenodd;clip-rule:evenodd;fill:url(#SVGID_2_);"/>
		<clipPath id="SVGID_3_">
			<use xlink:href="#SVGID_1_"  style="overflow:visible;"/>
		</clipPath>
	</g>
	<g>
		<defs>
			<path id="SVGID_4_" d="M29.9,38c2.7,2.7,2.7,7,0,9.6c-2.7,2.7-7,2.7-9.6,0L2.6,29.9c-2.7-2.7-2.7-7,0-9.6c2.7-2.7,7-2.7,9.6,0
				L29.9,38z"/>
		</defs>
		<linearGradient id="SVGID_5_" gradientUnits="userSpaceOnUse" x1="7.8895" y1="26.2341" x2="34.742" y2="50.9615">
			<stop  offset="0" style="stop-color:#45BB8B"/>
			<stop  offset="1" style="stop-color:#26C4F4"/>
		</linearGradient>
		<use xlink:href="#SVGID_4_"  style="overflow:visible;fill-rule:evenodd;clip-rule:evenodd;fill:url(#SVGID_5_);"/>
		<clipPath id="SVGID_6_">
			<use xlink:href="#SVGID_4_"  style="overflow:visible;"/>
		</clipPath>
	</g>
	<g>
		<g>
			<path class="st0" d="M48.3,20.2c-7.6,0-12.8,6.2-12.8,13.6v0.1c0,8,5.8,13.5,13.6,13.5c3.8,0,6.7-1.2,9-3.2c0.5-0.5,1-1.2,1-2.2
				c0-1.7-1.2-2.9-2.9-2.9c-0.8,0-1.3,0.2-1.8,0.6c-1.5,1.1-3.2,1.8-5.2,1.8c-3.3,0-5.6-1.8-6.3-5.1h14.6c1.9,0,3.4-1.4,3.4-3.6
				C60.8,27.4,57,20.2,48.3,20.2z M42.7,31.7c0.6-3.4,2.6-5.6,5.6-5.6c3.1,0,5,2.2,5.5,5.6H42.7z"/>
		</g>
		<g>
			<path class="st0" d="M79,20.2c-3.7,0-5.9,2-7.6,4.2v-0.3c0-2.1-1.6-3.7-3.7-3.7c-2,0-3.7,1.7-3.7,3.7v19.4c0,2.1,1.6,3.7,3.7,3.7
				c2,0,3.7-1.7,3.7-3.7V32.3c0-3.5,1.8-5.3,4.6-5.3c2.8,0,4.5,1.8,4.5,5.3v11.2c0,2.1,1.6,3.7,3.7,3.7c2,0,3.7-1.7,3.7-3.7V29.9
				C87.8,23.9,84.5,20.2,79,20.2z"/>
		</g>
		<g>
			<path class="st0" d="M134.5,20.2c-7.6,0-12.8,6.2-12.8,13.6v0.1c0,8,5.8,13.5,13.6,13.5c3.8,0,6.7-1.2,9-3.2c0.5-0.5,1-1.2,1-2.2
				c0-1.7-1.2-2.9-2.9-2.9c-0.8,0-1.3,0.2-1.8,0.6c-1.5,1.1-3.2,1.8-5.2,1.8c-3.3,0-5.6-1.8-6.3-5.1h14.6c1.9,0,3.4-1.4,3.4-3.6
				C147,27.4,143.2,20.2,134.5,20.2z M128.9,31.7c0.6-3.4,2.6-5.6,5.6-5.6c3.1,0,5,2.2,5.5,5.6H128.9z"/>
		</g>
		<g>
			<path class="st0" d="M31.4,17.1H32c1.6,0,3-1.4,3-3.1c0-1.7-1.3-2.8-2.5-3c-0.8-0.1-1.8-0.2-3-0.2c-2.6,0-4.6,0.7-6,2.1
				c-1.4,1.4-2.1,3.5-2.1,6.4v1.7h-0.3c-1.7,0-3.1,1.4-3.1,3.1s1.4,3,3.1,3h0.3v16.4c0,2.1,1.6,3.7,3.7,3.7c2,0,3.7-1.7,3.7-3.7V27
				h3.1c1.7,0,3.1-1.3,3.1-3s-1.4-3-3.1-3h-3.2v-1C28.7,18,29.7,17.1,31.4,17.1z"/>
		</g>
		<g>
			<path class="st0" d="M179.2,31c-2.8-1-5.3-1.7-5.3-3.1v-0.1c0-1,0.9-1.8,2.7-1.8c1.5,0,3.5,0.6,5.6,1.7c0.5,0.2,0.8,0.3,1.4,0.3
				c1.6,0,3-1.3,3-2.9c0-1.3-0.7-2.2-1.7-2.8c-2.5-1.3-5.3-2-8-2c-5.2,0-9.5,3-9.5,8.3v0.1c0,5.1,4.1,6.8,7.7,7.9
				c2.9,0.9,5.4,1.4,5.4,3v0.1c0,1.2-1,2-3.1,2c-2.1,0-4.6-0.8-7-2.3c-0.4-0.2-0.9-0.4-1.5-0.4c-1.6,0-2.9,1.3-2.9,2.9
				c0,1.2,0.6,2.1,1.4,2.5c3.1,2.1,6.6,3,9.8,3c5.6,0,9.9-2.6,9.9-8.5v-0.1C187.1,34,182.9,32.3,179.2,31z"/>
		</g>
		<g>
			<path class="st0" d="M162.1,20.4c-2.2,0-3.9,2.3-5,4.9v-1.2c0-2.1-1.6-3.7-3.7-3.7c-2,0-3.7,1.7-3.7,3.7v19.4
				c0,2.1,1.6,3.7,3.7,3.7c2,0,3.7-1.7,3.7-3.7v-6.9c0-5.3,2.1-8.2,5.8-9c1.5-0.3,2.8-1.5,2.8-3.5C165.7,21.9,164.4,20.4,162.1,20.4
				z"/>
		</g>
		<g>
			<path class="st0" d="M114.6,10.9c-2,0-3.7,1.7-3.7,3.7v9.5c-1.7-2.1-4.2-3.9-8.1-3.9c-6.1,0-11.8,4.8-11.8,13.5v0.1
				c0,8.7,5.8,13.5,11.8,13.5c3.8,0,6.3-1.8,8.1-4.3v0.3c0,2.1,1.6,3.7,3.7,3.7c2,0,3.7-1.7,3.7-3.7V14.6
				C118.3,12.6,116.7,10.9,114.6,10.9z M111.1,33.8c0,4.3-2.9,7.2-6.3,7.2c-3.4,0-6.3-2.9-6.3-7.2v-0.1c0-4.4,2.9-7.2,6.3-7.2
				C108.2,26.5,111.1,29.4,111.1,33.8L111.1,33.8z"/>
		</g>
	</g>
	<g>
		<defs>
			<path id="SVGID_7_" d="M29.5,2.4c2.6,2.7,2.6,7,0,9.7L12.1,29.7c-1.2,1.2-3.6,4.6-1.5,8.1c0,0-6.6-6.6-8-8.1
				c-2.6-2.7-2.6-7,0-9.7L19.9,2.4C22.5-0.3,26.8-0.3,29.5,2.4z"/>
		</defs>
		<linearGradient id="SVGID_8_" gradientUnits="userSpaceOnUse" x1="22.8607" y1="23.2667" x2="10.6902" y2="10.5167">
			<stop  offset="0" style="stop-color:#F47E5C"/>
			<stop  offset="1" style="stop-color:#F9BD27"/>
		</linearGradient>
		<use xlink:href="#SVGID_7_"  style="overflow:visible;fill-rule:evenodd;clip-rule:evenodd;fill:url(#SVGID_8_);"/>
		<clipPath id="SVGID_9_">
			<use xlink:href="#SVGID_7_"  style="overflow:visible;"/>
		</clipPath>
	</g>
	<g>
		<defs>
			<path id="SVGID_10_" d="M170.5,55.6c-2.6-2.7-2.6-7,0-9.7l17.4-17.6c1.2-1.2,3.6-4.6,1.5-8.1c0,0,6.6,6.6,8,8.1
				c2.6,2.7,2.6,7,0,9.7l-17.4,17.6C177.5,58.3,173.2,58.3,170.5,55.6z"/>
		</defs>
		
			<linearGradient id="SVGID_11_" gradientUnits="userSpaceOnUse" x1="611.7626" y1="209.8351" x2="599.5921" y2="197.085" gradientTransform="matrix(-1 0 0 -1 788.902 244.5683)">
			<stop  offset="0" style="stop-color:#7650A0"/>
			<stop  offset="1" style="stop-color:#6B3895"/>
		</linearGradient>
		<use xlink:href="#SVGID_10_"  style="overflow:visible;fill-rule:evenodd;clip-rule:evenodd;fill:url(#SVGID_11_);"/>
		<clipPath id="SVGID_12_">
			<use xlink:href="#SVGID_10_"  style="overflow:visible;"/>
		</clipPath>
	</g>
</g>
</svg>
