<svg id="Layer_1" xmlns="http://www.w3.org/2000/svg" xmlns:xlink="http://www.w3.org/1999/xlink" viewBox="0 0 299.3 65.7"><style>.st0{fill:#fff}.st1{clip-path:url(#SVGID_2_)}</style><title>logo-mono</title><path class="st0" d="M246.8 55c7.3 0 12.8-3.4 12.8-10.9V44c0-6.2-5.4-8.5-10.1-10.1-3.6-1.3-6.8-2.1-6.8-4v-.2c0-1.3 1.2-2.3 3.5-2.3 2.5.2 5 .9 7.3 2.1.5.3 1.1.5 1.8.4 2.1 0 3.8-1.6 3.8-3.7v-.1c0-1.5-.9-3-2.3-3.6-3.2-1.7-6.8-2.5-10.4-2.6-6.8 0-12.3 3.9-12.3 10.8v.1c0 6.6 5.3 8.8 10 10.2 3.7 1.1 7 1.8 7 3.9v.1c0 1.5-1.2 2.5-4 2.5-3.2-.1-6.4-1.2-9.1-3-.6-.3-1.2-.5-1.9-.5-2 0-3.7 1.6-3.8 3.7v.1c0 1.3.7 2.6 1.8 3.3 3.8 2.6 8.2 3.9 12.7 3.9zm-35.5-5c0 2.6 2.1 4.8 4.8 4.8 2.6 0 4.8-2.1 4.8-4.8v-9c0-6.8 2.7-10.6 7.5-11.7 2.1-.4 3.6-2.3 3.6-4.5.2-2.4-1.6-4.5-4-4.7h-.6c-2.8 0-5.1 3-6.4 6.3v-1.5c0-2.6-2.1-4.8-4.8-4.8-2.6 0-4.8 2.1-4.8 4.8l-.1 25.1zm-7.1 1.1c.8-.7 1.3-1.8 1.2-2.8.1-2-1.5-3.7-3.5-3.8h-.2c-.8 0-1.7.2-2.3.8-1.9 1.5-4.3 2.3-6.8 2.3-4 .3-7.6-2.6-8.2-6.6h18.9c2.4 0 4.4-1.9 4.5-4.3v-.3c0-7-4.9-16.3-16.2-16.3-9.8 0-16.6 8-16.6 17.7v.1c0 10.4 7.5 17.5 17.5 17.5 4.3-.1 8.5-1.6 11.7-4.3zm-19.8-16.3c.8-4.4 3.3-7.2 7.3-7.2s6.5 2.9 7.1 7.2h-14.4zM153.1 28c4.4 0 8.1 3.7 8.1 9.4v.1c0 5.6-3.7 9.4-8.1 9.4s-8.2-3.7-8.2-9.4v-.1c0-5.7 3.8-9.4 8.2-9.4zm17.5-15.4c0-2.6-2.1-4.8-4.8-4.8-2.6 0-4.8 2.1-4.8 4.8v12.3c-2.5-3.3-6.4-5.1-10.5-5.1-8 0-15.3 6.2-15.3 17.5v.1c0 11.3 7.5 17.5 15.3 17.5 4.2.1 8.1-2 10.5-5.5v.6c0 2.6 2.1 4.8 4.8 4.8 2.6 0 4.8-2.1 4.8-4.8V12.6zM100.3 50c0 2.6 2.1 4.8 4.8 4.8s4.8-2.1 4.8-4.8V35.5c0-4.5 2.3-6.9 6-6.9s5.8 2.3 5.8 6.9V50c0 2.6 2.1 4.8 4.8 4.8 2.6 0 4.8-2.1 4.8-4.8V32.5c0-7.8-4.2-12.6-11.4-12.6-4.8 0-7.6 2.6-9.8 5.4v-.4c0-2.6-2.1-4.8-4.8-4.8s-4.8 2.1-4.8 4.8l-.2 25.1zm-7.7 1.1c.8-.7 1.3-1.8 1.2-2.8.1-2-1.5-3.7-3.5-3.8h-.2c-.8 0-1.7.2-2.3.8-1.9 1.5-4.3 2.3-6.8 2.3-4 .3-7.6-2.6-8.2-6.6h18.9c2.4 0 4.4-1.9 4.5-4.3v-.3c0-7-4.9-16.3-16.2-16.3-9.8 0-16.6 8-16.6 17.7v.1c0 10.3 7.4 17.5 17.5 17.5 4.3-.1 8.5-1.6 11.7-4.3zM72.8 34.8c.8-4.4 3.3-7.2 7.3-7.2s6.5 2.9 7.1 7.2H72.8zM45.3 50c0 2.6 2.1 4.8 4.8 4.8 2.6 0 4.8-2.1 4.8-4.8V28.7h4c2.2 0 3.9-1.8 3.9-3.9 0-2.2-1.8-3.9-3.9-3.9h-4.1v-1.3c0-2.5 1.2-3.7 3.5-3.7h.7c2.2-.1 3.9-1.8 3.9-4 0-1.9-1.4-3.6-3.3-3.9-1.3-.2-2.6-.3-3.9-.3-3.4 0-6 .9-7.7 2.7-1.8 1.8-2.7 4.5-2.7 8.2v2.1h-.4c-2.2 0-4 1.8-4 4s1.7 3.9 3.9 3.9h.5V50z"/><defs><path id="SVGID_1_" d="M246.8 55c7.3 0 12.8-3.4 12.8-10.9V44c0-6.2-5.4-8.5-10.1-10.1-3.6-1.3-6.8-2.1-6.8-4v-.2c0-1.3 1.2-2.3 3.5-2.3 2.5.2 5 .9 7.3 2.1.5.3 1.1.5 1.8.4 2.1 0 3.8-1.6 3.8-3.7v-.1c0-1.5-.9-3-2.3-3.6-3.2-1.7-6.8-2.5-10.4-2.6-6.8 0-12.3 3.9-12.3 10.8v.1c0 6.6 5.3 8.8 10 10.2 3.7 1.1 7 1.8 7 3.9v.1c0 1.5-1.2 2.5-4 2.5-3.2-.1-6.4-1.2-9.1-3-.6-.3-1.2-.5-1.9-.5-2 0-3.7 1.6-3.8 3.7v.1c0 1.3.7 2.6 1.8 3.3 3.8 2.6 8.2 3.9 12.7 3.9zm-35.5-5c0 2.6 2.1 4.8 4.8 4.8 2.6 0 4.8-2.1 4.8-4.8v-9c0-6.8 2.7-10.6 7.5-11.7 2.1-.4 3.6-2.3 3.6-4.5.2-2.4-1.6-4.5-4-4.7h-.6c-2.8 0-5.1 3-6.4 6.3v-1.5c0-2.6-2.1-4.8-4.8-4.8-2.6 0-4.8 2.1-4.8 4.8l-.1 25.1zm-7.1 1.1c.8-.7 1.3-1.8 1.2-2.8.1-2-1.5-3.7-3.5-3.8h-.2c-.8 0-1.7.2-2.3.8-1.9 1.5-4.3 2.3-6.8 2.3-4 .3-7.6-2.6-8.2-6.6h18.9c2.4 0 4.4-1.9 4.5-4.3v-.3c0-7-4.9-16.3-16.2-16.3-9.8 0-16.6 8-16.6 17.7v.1c0 10.4 7.5 17.5 17.5 17.5 4.3-.1 8.5-1.6 11.7-4.3zm-19.8-16.3c.8-4.4 3.3-7.2 7.3-7.2s6.5 2.9 7.1 7.2h-14.4zM153.1 28c4.4 0 8.1 3.7 8.1 9.4v.1c0 5.6-3.7 9.4-8.1 9.4s-8.2-3.7-8.2-9.4v-.1c0-5.7 3.8-9.4 8.2-9.4zm17.5-15.4c0-2.6-2.1-4.8-4.8-4.8-2.6 0-4.8 2.1-4.8 4.8v12.3c-2.5-3.3-6.4-5.1-10.5-5.1-8 0-15.3 6.2-15.3 17.5v.1c0 11.3 7.5 17.5 15.3 17.5 4.2.1 8.1-2 10.5-5.5v.6c0 2.6 2.1 4.8 4.8 4.8 2.6 0 4.8-2.1 4.8-4.8V12.6zM100.3 50c0 2.6 2.1 4.8 4.8 4.8s4.8-2.1 4.8-4.8V35.5c0-4.5 2.3-6.9 6-6.9s5.8 2.3 5.8 6.9V50c0 2.6 2.1 4.8 4.8 4.8 2.6 0 4.8-2.1 4.8-4.8V32.5c0-7.8-4.2-12.6-11.4-12.6-4.8 0-7.6 2.6-9.8 5.4v-.4c0-2.6-2.1-4.8-4.8-4.8s-4.8 2.1-4.8 4.8l-.2 25.1zm-7.7 1.1c.8-.7 1.3-1.8 1.2-2.8.1-2-1.5-3.7-3.5-3.8h-.2c-.8 0-1.7.2-2.3.8-1.9 1.5-4.3 2.3-6.8 2.3-4 .3-7.6-2.6-8.2-6.6h18.9c2.4 0 4.4-1.9 4.5-4.3v-.3c0-7-4.9-16.3-16.2-16.3-9.8 0-16.6 8-16.6 17.7v.1c0 10.3 7.4 17.5 17.5 17.5 4.3-.1 8.5-1.6 11.7-4.3zM72.8 34.8c.8-4.4 3.3-7.2 7.3-7.2s6.5 2.9 7.1 7.2H72.8zM45.3 50c0 2.6 2.1 4.8 4.8 4.8 2.6 0 4.8-2.1 4.8-4.8V28.7h4c2.2 0 3.9-1.8 3.9-3.9 0-2.2-1.8-3.9-3.9-3.9h-4.1v-1.3c0-2.5 1.2-3.7 3.5-3.7h.7c2.2-.1 3.9-1.8 3.9-4 0-1.9-1.4-3.6-3.3-3.9-1.3-.2-2.6-.3-3.9-.3-3.4 0-6 .9-7.7 2.7-1.8 1.8-2.7 4.5-2.7 8.2v2.1h-.4c-2.2 0-4 1.8-4 4s1.7 3.9 3.9 3.9h.5V50z"/></defs><clipPath id="SVGID_2_"><use xlink:href="#SVGID_1_" overflow="visible"/></clipPath><path class="st1 st0" d="M-19.3-36.9h333v138h-333z"/><path class="st0" d="M271.7 2.6c-3.4-3.4-9-3.4-12.5 0s-3.4 9 0 12.5l17 16.9 6.2-6.2c1.5-1.5 4.6-5.9 2-10.5"/><path class="st0" d="M261.9 63.1c-3.4-3.5-3.4-9.1 0-12.5l22.5-22.8c1.5-1.5 4.6-5.9 2-10.5l10.4 10.5c3.4 3.5 3.4 9.1 0 12.5l-22.5 22.8c-3.4 3.4-8.9 3.5-12.3.1-.1 0-.1-.1-.1-.1zM27.6 63.1c3.4 3.4 9 3.4 12.5 0 3.4-3.4 3.4-9 0-12.5l-17-16.9-6.1 6.2c-1.5 1.5-4.6 5.9-2 10.5"/><path class="st0" d="M37.4 2.6c3.4 3.5 3.4 9.1 0 12.6L15 37.9c-1.5 1.5-4.6 5.9-2 10.5L2.5 37.9c-3.4-3.5-3.4-9.1 0-12.5L25 2.6c3.4-3.4 8.9-3.5 12.3-.1.1 0 .1.1.1.1z"/></svg>