<?xml version="1.0" encoding="utf-8"?>
<!-- Generator: Adobe Illustrator 19.2.0, SVG Export Plug-In . SVG Version: 6.00 Build 0)  -->
<svg version="1.1" id="Layer_1" xmlns="http://www.w3.org/2000/svg" xmlns:xlink="http://www.w3.org/1999/xlink" x="0px" y="0px"
	 viewBox="0 0 299.3 65.7" style="enable-background:new 0 0 299.3 65.7;" xml:space="preserve">
<style type="text/css">
	.st0{fill:#FFFFFF;}
	.st1{clip-path:url(#SVGID_2_);}
</style>
<title>logo-mono</title>
<path class="st0" d="M246.8,55c7.3,0,12.8-3.4,12.8-10.9V44c0-6.2-5.4-8.5-10.1-10.1c-3.6-1.3-6.8-2.1-6.8-4v-0.2
	c0-1.3,1.2-2.3,3.5-2.3c2.5,0.2,5,0.9,7.3,2.1c0.5,0.3,1.1,0.5,1.8,0.4c2.1,0,3.8-1.6,3.8-3.7c0,0,0-0.1,0-0.1c0-1.5-0.9-3-2.3-3.6
	c-3.2-1.7-6.8-2.5-10.4-2.6c-6.8,0-12.3,3.9-12.3,10.8v0.1c0,6.6,5.3,8.8,10,10.2c3.7,1.1,7,1.8,7,3.9v0.1c0,1.5-1.2,2.5-4,2.5
	c-3.2-0.1-6.4-1.2-9.1-3c-0.6-0.3-1.2-0.5-1.9-0.5c-2,0-3.7,1.6-3.8,3.7c0,0,0,0.1,0,0.1c0,1.3,0.7,2.6,1.8,3.3
	C237.9,53.7,242.3,55,246.8,55z M211.3,50c0,2.6,2.1,4.8,4.8,4.8c2.6,0,4.8-2.1,4.8-4.8l0,0v-9c0-6.8,2.7-10.6,7.5-11.7
	c2.1-0.4,3.6-2.3,3.6-4.5c0.2-2.4-1.6-4.5-4-4.7c-0.2,0-0.4,0-0.6,0c-2.8,0-5.1,3-6.4,6.3v-1.5c0-2.6-2.1-4.8-4.8-4.8
	c-2.6,0-4.8,2.1-4.8,4.8L211.3,50L211.3,50z M204.2,51.1c0.8-0.7,1.3-1.8,1.2-2.8c0.1-2-1.5-3.7-3.5-3.8c-0.1,0-0.1,0-0.2,0
	c-0.8,0-1.7,0.2-2.3,0.8c-1.9,1.5-4.3,2.3-6.8,2.3c-4,0.3-7.6-2.6-8.2-6.6h18.9c2.4,0,4.4-1.9,4.5-4.3c0-0.1,0-0.2,0-0.3
	c0-7-4.9-16.3-16.2-16.3c-9.8,0-16.6,8-16.6,17.7v0.1c0,10.4,7.5,17.5,17.5,17.5C196.8,55.3,201,53.8,204.2,51.1L204.2,51.1z
	 M184.4,34.8c0.8-4.4,3.3-7.2,7.3-7.2s6.5,2.9,7.1,7.2H184.4z M153.1,28c4.4,0,8.1,3.7,8.1,9.4v0.1c0,5.6-3.7,9.4-8.1,9.4
	s-8.2-3.7-8.2-9.4v-0.1C144.9,31.7,148.7,28,153.1,28z M170.6,12.6c0-2.6-2.1-4.8-4.8-4.8c-2.6,0-4.8,2.1-4.8,4.8v12.3
	c-2.5-3.3-6.4-5.1-10.5-5.1c-8,0-15.3,6.2-15.3,17.5v0.1c0,11.3,7.5,17.5,15.3,17.5c4.2,0.1,8.1-2,10.5-5.5V50
	c0,2.6,2.1,4.8,4.8,4.8c2.6,0,4.8-2.1,4.8-4.8l0,0V12.6L170.6,12.6z M100.3,50c0,2.6,2.1,4.8,4.8,4.8s4.8-2.1,4.8-4.8c0,0,0,0,0,0
	V35.5c0-4.5,2.3-6.9,6-6.9s5.8,2.3,5.8,6.9V50c0,2.6,2.1,4.8,4.8,4.8c2.6,0,4.8-2.1,4.8-4.8c0,0,0,0,0,0V32.5
	c0-7.8-4.2-12.6-11.4-12.6c-4.8,0-7.6,2.6-9.8,5.4v-0.4c0-2.6-2.1-4.8-4.8-4.8s-4.8,2.1-4.8,4.8L100.3,50L100.3,50z M92.6,51.1
	c0.8-0.7,1.3-1.8,1.2-2.8c0.1-2-1.5-3.7-3.5-3.8c-0.1,0-0.1,0-0.2,0c-0.8,0-1.7,0.2-2.3,0.8c-1.9,1.5-4.3,2.3-6.8,2.3
	c-4,0.3-7.6-2.6-8.2-6.6h18.9c2.4,0,4.4-1.9,4.5-4.3c0-0.1,0-0.2,0-0.3c0-7-4.9-16.3-16.2-16.3c-9.8,0-16.6,8-16.6,17.7v0.1
	c0,10.3,7.4,17.5,17.5,17.5C85.2,55.3,89.4,53.8,92.6,51.1L92.6,51.1z M72.8,34.8c0.8-4.4,3.3-7.2,7.3-7.2s6.5,2.9,7.1,7.2H72.8z
	 M45.3,50c0,2.6,2.1,4.8,4.8,4.8c2.6,0,4.8-2.1,4.8-4.8c0,0,0,0,0,0V28.7h4c2.2,0,3.9-1.8,3.9-3.9c0-2.2-1.8-3.9-3.9-3.9
	c0,0,0,0,0,0h-4.1v-1.3c0-2.5,1.2-3.7,3.5-3.7H59c2.2-0.1,3.9-1.8,3.9-4c0-1.9-1.4-3.6-3.3-3.9c-1.3-0.2-2.6-0.3-3.9-0.3
	c-3.4,0-6,0.9-7.7,2.7c-1.8,1.8-2.7,4.5-2.7,8.2v2.1h-0.4c-2.2,0-4,1.8-4,4c0,2.2,1.7,3.9,3.9,3.9c0,0,0,0,0.1,0h0.4V50z"/>
<g>
	<defs>
		<path id="SVGID_1_" d="M246.8,55c7.3,0,12.8-3.4,12.8-10.9V44c0-6.2-5.4-8.5-10.1-10.1c-3.6-1.3-6.8-2.1-6.8-4v-0.2
			c0-1.3,1.2-2.3,3.5-2.3c2.5,0.2,5,0.9,7.3,2.1c0.5,0.3,1.1,0.5,1.8,0.4c2.1,0,3.8-1.6,3.8-3.7c0,0,0-0.1,0-0.1
			c0-1.5-0.9-3-2.3-3.6c-3.2-1.7-6.8-2.5-10.4-2.6c-6.8,0-12.3,3.9-12.3,10.8v0.1c0,6.6,5.3,8.8,10,10.2c3.7,1.1,7,1.8,7,3.9v0.1
			c0,1.5-1.2,2.5-4,2.5c-3.2-0.1-6.4-1.2-9.1-3c-0.6-0.3-1.2-0.5-1.9-0.5c-2,0-3.7,1.6-3.8,3.7c0,0,0,0.1,0,0.1
			c0,1.3,0.7,2.6,1.8,3.3C237.9,53.7,242.3,55,246.8,55z M211.3,50c0,2.6,2.1,4.8,4.8,4.8c2.6,0,4.8-2.1,4.8-4.8l0,0v-9
			c0-6.8,2.7-10.6,7.5-11.7c2.1-0.4,3.6-2.3,3.6-4.5c0.2-2.4-1.6-4.5-4-4.7c-0.2,0-0.4,0-0.6,0c-2.8,0-5.1,3-6.4,6.3v-1.5
			c0-2.6-2.1-4.8-4.8-4.8c-2.6,0-4.8,2.1-4.8,4.8L211.3,50L211.3,50z M204.2,51.1c0.8-0.7,1.3-1.8,1.2-2.8c0.1-2-1.5-3.7-3.5-3.8
			c-0.1,0-0.1,0-0.2,0c-0.8,0-1.7,0.2-2.3,0.8c-1.9,1.5-4.3,2.3-6.8,2.3c-4,0.3-7.6-2.6-8.2-6.6h18.9c2.4,0,4.4-1.9,4.5-4.3
			c0-0.1,0-0.2,0-0.3c0-7-4.9-16.3-16.2-16.3c-9.8,0-16.6,8-16.6,17.7v0.1c0,10.4,7.5,17.5,17.5,17.5
			C196.8,55.3,201,53.8,204.2,51.1L204.2,51.1z M184.4,34.8c0.8-4.4,3.3-7.2,7.3-7.2s6.5,2.9,7.1,7.2H184.4z M153.1,28
			c4.4,0,8.1,3.7,8.1,9.4v0.1c0,5.6-3.7,9.4-8.1,9.4s-8.2-3.7-8.2-9.4v-0.1C144.9,31.7,148.7,28,153.1,28z M170.6,12.6
			c0-2.6-2.1-4.8-4.8-4.8c-2.6,0-4.8,2.1-4.8,4.8v12.3c-2.5-3.3-6.4-5.1-10.5-5.1c-8,0-15.3,6.2-15.3,17.5v0.1
			c0,11.3,7.5,17.5,15.3,17.5c4.2,0.1,8.1-2,10.5-5.5V50c0,2.6,2.1,4.8,4.8,4.8c2.6,0,4.8-2.1,4.8-4.8l0,0V12.6L170.6,12.6z
			 M100.3,50c0,2.6,2.1,4.8,4.8,4.8s4.8-2.1,4.8-4.8c0,0,0,0,0,0V35.5c0-4.5,2.3-6.9,6-6.9s5.8,2.3,5.8,6.9V50
			c0,2.6,2.1,4.8,4.8,4.8c2.6,0,4.8-2.1,4.8-4.8c0,0,0,0,0,0V32.5c0-7.8-4.2-12.6-11.4-12.6c-4.8,0-7.6,2.6-9.8,5.4v-0.4
			c0-2.6-2.1-4.8-4.8-4.8s-4.8,2.1-4.8,4.8L100.3,50L100.3,50z M92.6,51.1c0.8-0.7,1.3-1.8,1.2-2.8c0.1-2-1.5-3.7-3.5-3.8
			c-0.1,0-0.1,0-0.2,0c-0.8,0-1.7,0.2-2.3,0.8c-1.9,1.5-4.3,2.3-6.8,2.3c-4,0.3-7.6-2.6-8.2-6.6h18.9c2.4,0,4.4-1.9,4.5-4.3
			c0-0.1,0-0.2,0-0.3c0-7-4.9-16.3-16.2-16.3c-9.8,0-16.6,8-16.6,17.7v0.1c0,10.3,7.4,17.5,17.5,17.5C85.2,55.3,89.4,53.8,92.6,51.1
			L92.6,51.1z M72.8,34.8c0.8-4.4,3.3-7.2,7.3-7.2s6.5,2.9,7.1,7.2H72.8z M45.3,50c0,2.6,2.1,4.8,4.8,4.8c2.6,0,4.8-2.1,4.8-4.8
			c0,0,0,0,0,0V28.7h4c2.2,0,3.9-1.8,3.9-3.9c0-2.2-1.8-3.9-3.9-3.9c0,0,0,0,0,0h-4.1v-1.3c0-2.5,1.2-3.7,3.5-3.7H59
			c2.2-0.1,3.9-1.8,3.9-4c0-1.9-1.4-3.6-3.3-3.9c-1.3-0.2-2.6-0.3-3.9-0.3c-3.4,0-6,0.9-7.7,2.7c-1.8,1.8-2.7,4.5-2.7,8.2v2.1h-0.4
			c-2.2,0-4,1.8-4,4c0,2.2,1.7,3.9,3.9,3.9c0,0,0,0,0.1,0h0.4V50z"/>
	</defs>
	<clipPath id="SVGID_2_">
		<use xlink:href="#SVGID_1_"  style="overflow:visible;"/>
	</clipPath>
	<g class="st1">
		<rect x="-19.3" y="-36.9" class="st0" width="333" height="138"/>
	</g>
</g>
<path class="st0" d="M271.7,2.6c-3.4-3.4-9-3.4-12.5,0s-3.4,9,0,12.5l0,0L276.2,32l6.2-6.2c1.5-1.5,4.6-5.9,2-10.5"/>
<path class="st0" d="M261.9,63.1c-3.4-3.5-3.4-9.1,0-12.5l22.5-22.8c1.5-1.5,4.6-5.9,2-10.5l10.4,10.5c3.4,3.5,3.4,9.1,0,12.5
	l-22.5,22.8c-3.4,3.4-8.9,3.5-12.3,0.1C261.9,63.2,261.9,63.1,261.9,63.1z"/>
<path class="st0" d="M27.6,63.1c3.4,3.4,9,3.4,12.5,0c3.4-3.4,3.4-9,0-12.5l-17-16.9L17,39.9c-1.5,1.5-4.6,5.9-2,10.5"/>
<path class="st0" d="M37.4,2.6c3.4,3.5,3.4,9.1,0,12.6L15,37.9c-1.5,1.5-4.6,5.9-2,10.5L2.5,37.9c-3.4-3.5-3.4-9.1,0-12.5L25,2.6
	c3.4-3.4,8.9-3.5,12.3-0.1C37.4,2.5,37.4,2.6,37.4,2.6z"/>
</svg>
