<svg version="1" xmlns="http://www.w3.org/2000/svg" width="174.667" height="174.667" viewBox="0 0 131.000000 131.000000"><path d="M47 9.8c-2.8.5-42.2 38.8-44.6 43.4-1.8 3.5-1.8 9.1 0 12.6 2.4 4.5 40.2 41.6 43.8 42.9 7.1 2.7 15.8-1.6 17.9-8.6 2.3-7.8 1.1-10-14.4-25.8-7.8-7.9-14.3-14.6-14.5-14.7-.2-.2 6-6.8 13.7-14.6 14.4-14.5 16.5-17.8 15.5-23.7-1.5-8-9-13-17.4-11.5zM76 21.8c-8.4 3.7-11.5 13.2-6.6 20.4 1.3 1.9 8 9.1 15 16.1l12.7 12.5-13.3 13.4c-14.9 15-16.3 16.8-16.7 22-.6 8.8 7.8 16 16.7 14.3 3.1-.6 7-3.9 24-20.8 11.2-11.1 21-21.4 21.8-22.9 1.9-3.6 1.8-8.2-.2-12.1-1.9-3.6-37.3-39-41.9-41.8-3-1.9-8.6-2.4-11.5-1.1z"/></svg>