<?xml version="1.0" encoding="utf-8"?>
<!-- Generator: Adobe Illustrator 19.2.0, SVG Export Plug-In . SVG Version: 6.00 Build 0)  -->
<svg version="1.1" id="Layer_1" xmlns="http://www.w3.org/2000/svg" xmlns:xlink="http://www.w3.org/1999/xlink" x="0px" y="0px"
	 viewBox="0 0 263.5 205" style="enable-background:new 0 0 263.5 205;" xml:space="preserve">
<style type="text/css">
	.st0{fill-rule:evenodd;clip-rule:evenodd;fill:#4199D4;stroke:#FFFFFF;stroke-width:8;stroke-miterlimit:10;}
</style>
<path class="st0" d="M222.9,37.5c9.9-5.9,17.5-15.3,21.1-26.5c-9.3,5.5-19.5,9.5-30.5,11.6c-8.7-9.3-21.2-15.1-35-15.1
	c-26.5,0-48,21.5-48,48c0,3.8,0.4,7.4,1.2,10.9c-39.9-2-75.2-21.1-98.9-50.1c-4.1,7.1-6.5,15.3-6.5,24.1c0,16.6,8.5,31.3,21.3,39.9
	c-7.9-0.3-15.3-2.4-21.7-6v0.6c0,23.2,16.5,42.6,38.5,47c-4,1.1-8.3,1.7-12.6,1.7c-3.1,0-6.1-0.3-9-0.9
	c6.1,19.1,23.8,32.9,44.8,33.3c-16.4,12.9-37.1,20.5-59.6,20.5c-3.9,0-7.7-0.2-11.4-0.7c21.2,13.6,46.4,21.5,73.5,21.5
	c88.2,0,136.5-73.1,136.5-136.5c0-2.1,0-4.2-0.1-6.2c9.4-6.8,17.5-15.2,23.9-24.8C241.9,33.8,232.6,36.4,222.9,37.5z"/>
</svg>
