<svg id="Layer_1" xmlns="http://www.w3.org/2000/svg" xmlns:xlink="http://www.w3.org/1999/xlink" viewBox="0 0 200 200"><style>.st0{fill-rule:evenodd;clip-rule:evenodd}</style><defs><path id="SVGID_3_" d="M146.7 146.7h-13.3v-13.3h13.3v13.3zm-40 26.6H93.3V160h13.3v13.3zm-80-80H40v13.3H26.7V93.3zM53.3 40h13.3v13.3H53.3V40zm0 93.3h13.3v13.3H53.3v-13.3zm80-93.3h13.3v13.3h-13.3V40zm-40 66.7v-80h13.3v66.7H160v13.3H93.3zm6.7-93.4c-47.9 0-86.7 38.8-86.7 86.7 0 47.9 38.8 86.7 86.7 86.7 47.9 0 86.7-38.8 86.7-86.7 0-47.9-38.8-86.7-86.7-86.7zm0 186.7C44.8 200 0 155.2 0 100S44.8 0 100 0s100 44.8 100 100-44.8 100-100 100z"/></defs><use xlink:href="#SVGID_3_" overflow="visible" fill-rule="evenodd" clip-rule="evenodd"/><clipPath id="SVGID_2_"><use xlink:href="#SVGID_3_" overflow="visible"/></clipPath></svg>